<?xml version="1.0"?>
<svg xmlns="http://www.w3.org/2000/svg" xmlns:xlink="http://www.w3.org/1999/xlink" xmlns:svgjs="http://svgjs.com/svgjs" version="1.1" width="512" height="512" x="0" y="0" viewBox="0 0 423 423.26152" style="enable-background:new 0 0 512 512" xml:space="preserve" class=""><g><path xmlns="http://www.w3.org/2000/svg" d="m314.15625 77.710938v290.9375h-259.414062v-354.988282h199.195312zm0 0" fill="#ffc107" data-original="#d6d6d6" style="" class=""/><g xmlns="http://www.w3.org/2000/svg" fill="#5c128d"><path d="m54.742188 293.960938c-7.539063 0-13.652344-6.113282-13.652344-13.652344v-266.648438c0-7.539062 6.113281-13.6523435 13.652344-13.6523435h191.148437c7.539063 0 13.652344 6.1132815 13.652344 13.6523435 0 7.542969-6.113281 13.65625-13.652344 13.65625h-177.492187v252.992188c0 7.539062-6.113282 13.652344-13.65625 13.652344zm0 0" fill="#ff5722" data-original="#5c128d" style="" class=""/><path d="m314.15625 382.300781h-163.839844c-7.539062 0-13.652344-6.113281-13.652344-13.652343 0-7.539063 6.113282-13.652344 13.652344-13.652344h150.1875v-273.066406c0-7.542969 6.113282-13.65625 13.652344-13.65625 7.542969 0 13.65625 6.113281 13.65625 13.65625v286.71875c0 7.539062-6.113281 13.652343-13.65625 13.652343zm0 0" fill="#ff5722" data-original="#5c128d" style="" class=""/><path d="m314.15625 95.582031h-68.265625c-7.539063 0-13.652344-6.113281-13.652344-13.652343v-68.269532c0-5.519531 3.324219-10.5 8.425781-12.613281 5.101563-2.125 10.96875-.953125 14.882813 2.960937l68.265625 68.265626c3.90625 3.90625 5.074219 9.773437 2.957031 14.878906-2.113281 5.101562-7.09375 8.429687-12.613281 8.429687zm-54.613281-27.308593h21.65625l-21.65625-21.652344zm0 0" fill="#ff5722" data-original="#5c128d" style="" class=""/></g><path xmlns="http://www.w3.org/2000/svg" d="m95.703125 382.300781h-81.917969c-7.542968 0-13.65625-6.113281-13.65625-13.652343 0-7.539063 6.113282-13.652344 13.65625-13.652344h81.917969c7.542969 0 13.65625 6.113281 13.65625 13.652344 0 7.539062-6.113281 13.652343-13.65625 13.652343zm0 0" fill="#2196f3" data-original="#8690c3" style="" class=""/><path xmlns="http://www.w3.org/2000/svg" d="m54.742188 423.261719c-7.539063 0-13.652344-6.113281-13.652344-13.652344v-81.921875c0-7.539062 6.113281-13.652344 13.652344-13.652344 7.542968 0 13.65625 6.113282 13.65625 13.652344v81.921875c0 7.539063-6.113282 13.652344-13.65625 13.652344zm0 0" fill="#2196f3" data-original="#8690c3" style="" class=""/></g></svg>
