<?xml version="1.0"?>
<svg xmlns="http://www.w3.org/2000/svg" xmlns:xlink="http://www.w3.org/1999/xlink" xmlns:svgjs="http://svgjs.com/svgjs" version="1.1" width="512" height="512" x="0" y="0" viewBox="0 0 511 512" style="enable-background:new 0 0 512 512" xml:space="preserve" class=""><g><path xmlns="http://www.w3.org/2000/svg" d="m396.679688 98.078125c-.09375-1.503906-.386719-2.945313-.878907-4.367187-.183593-.523438-.320312-1.046876-.554687-1.550782-.796875-1.707031-1.800782-3.328125-3.179688-4.714844-.011718-.011718-.015625-.023437-.023437-.03125l-82.570313-82.570312c-.007812-.007812-.023437-.015625-.03125-.023438-1.390625-1.386718-3.019531-2.394531-4.734375-3.191406-.484375-.226562-.988281-.355468-1.496093-.535156-1.449219-.511719-2.925782-.808594-4.457032-.898438-.335937-.023437-.621094-.195312-.964844-.195312h-231.222656c-9.121094 0-16.519531 7.394531-16.519531 16.515625v322.554687c0 9.121094 7.398437 16.519532 16.519531 16.519532s16.515625-7.398438 16.515625-16.519532v-306.039062h198.191407v66.066406c0 9.121094 7.394531 16.515625 16.515624 16.515625h66.066407v313.804688h-181.679688c-9.121093 0-16.515625 7.394531-16.515625 16.515625s7.394532 16.519531 16.515625 16.519531h198.195313c9.121094 0 16.515625-7.398437 16.515625-16.519531v-346.835938c0-.363281-.179688-.664062-.207031-1.019531zm-82.375-15.496094v-26.195312l26.195312 26.195312zm0 0" fill="#ffffff" data-original="#000000" style="" class=""/><path xmlns="http://www.w3.org/2000/svg" d="m116.113281 462.453125h-99.097656c-9.121094 0-16.515625-7.398437-16.515625-16.519531s7.394531-16.515625 16.515625-16.515625h99.097656c9.121094 0 16.515625 7.394531 16.515625 16.515625s-7.394531 16.519531-16.515625 16.519531zm0 0" fill="#ffffff" data-original="#000000" style="" class=""/><path xmlns="http://www.w3.org/2000/svg" d="m66.566406 512c-9.121094 0-16.519531-7.394531-16.519531-16.515625v-99.097656c0-9.121094 7.398437-16.515625 16.519531-16.515625s16.515625 7.394531 16.515625 16.515625v99.097656c0 9.121094-7.394531 16.515625-16.515625 16.515625zm0 0" fill="#ffffff" data-original="#000000" style="" class=""/></g></svg>
