<svg id="Capa_1" enable-background="new 0 0 443.294 443.294" height="512" viewBox="0 0 443.294 443.294" width="512" xmlns="http://www.w3.org/2000/svg"><path d="m138.53 193.941h166.235v27.706h-166.235z"/><path d="m138.53 277.059h83.118v27.706h-83.118z"/><path d="m383.824 114.882-110.824-110.824c-2.597-2.597-6.114-4.058-9.794-4.058h-180.088c-15.274 0-27.706 12.432-27.706 27.706v387.882c0 15.273 12.432 27.706 27.706 27.706h277.059c15.273 0 27.706-12.432 27.706-27.706v-290.912c-.001-3.679-1.462-7.197-4.059-9.794zm-106.765-67.587 63.529 63.529h-63.529zm83.117 368.294h-277.058v-387.882h166.235v83.118c0 15.273 12.432 27.706 27.706 27.706h83.118v277.058z"/></svg>