<?xml version="1.0" encoding="iso-8859-1"?>
<!-- Generator: Adobe Illustrator 19.0.0, SVG Export Plug-In . SVG Version: 6.00 Build 0)  -->
<svg version="1.1" id="Layer_1" xmlns="http://www.w3.org/2000/svg" xmlns:xlink="http://www.w3.org/1999/xlink" x="0px" y="0px"
	 viewBox="0 0 512 512" style="enable-background:new 0 0 512 512;" xml:space="preserve">
<g>
	<g>
		<path d="M469.333,170.667H448v-21.333c0-23.531-19.135-42.667-42.667-42.667h-198.25l-39.542-39.542c-2-2-4.708-3.125-7.542-3.125
			H42.667C19.135,64,0,83.135,0,106.667v298.667c0,5.333,1.031,10.635,3.073,15.75l9.81-3.897l0.099,0.029l-9.878,3.962
			C9.646,437.469,25.167,448,42.667,448h362.667c19.346,0,36.083-13.005,41.069-31.685l0.119,0.039l63.375-189.833
			c0.208-0.604,0.344-1.229,0.438-1.854C511.448,220.719,512,217,512,213.333C512,189.802,492.865,170.667,469.333,170.667z
			 M21.333,106.667c0-11.76,9.573-21.333,21.333-21.333h112.917l39.542,39.542c2,2,4.708,3.125,7.542,3.125h202.667
			c11.76,0,21.333,9.573,21.333,21.333v21.333h-320c-19.792,0-36.667,13.292-41.375,32.427c-0.021,0.073-0.052,0.156-0.073,0.229
			L21.333,351.402V106.667z M489.521,219.771c-0.146,0.479-0.26,0.958-0.344,1.448l-62.885,188.385l-0.333,0.823
			c-2.354,9.563-10.833,16.24-20.625,16.24H42.667c-7.673,0-14.408-4.221-18.199-10.746l60.991-205.796
			c0.177-0.479,0.323-0.969,0.438-1.469C88.094,198.844,96.635,192,106.667,192h362.667c11.76,0,21.333,9.573,21.333,21.333
			C490.667,215.281,490.302,217.323,489.521,219.771z"/>
	</g>
</g>
<g>
</g>
<g>
</g>
<g>
</g>
<g>
</g>
<g>
</g>
<g>
</g>
<g>
</g>
<g>
</g>
<g>
</g>
<g>
</g>
<g>
</g>
<g>
</g>
<g>
</g>
<g>
</g>
<g>
</g>
</svg>
